<svg id="Layer_1" data-name="Layer 1" xmlns="http://www.w3.org/2000/svg" width="28" height="28" viewBox="0 0 28 28">
  <defs>
    <style>
      .cls-1 {
        fill: #fff;
      }

      .cls-2 {
        fill: none;
        stroke: gray;
        stroke-miterlimit: 10;
      }

      .cls-3 {
        fill: #b3b3b3;
      }

      .cls-4 {
        fill: #abc3e3;
      }

      .cls-5 {
        fill: #5a8ac6;
      }

      .cls-6 {
        fill: #fab2b5;
      }

      .cls-7 {
        fill: #f8696b;
      }

      .cls-8 {
        fill: #505050;
      }
    </style>
  </defs>
  <title>Color scale 5</title>
  <rect class="cls-1" y="1" width="28" height="26"/>
  <g>
    <rect class="cls-2" x="0.5" y="1.5" width="27" height="25"/>
    <rect class="cls-3" x="1" y="6" width="26" height="1"/>
    <rect class="cls-3" x="1" y="11" width="26" height="1"/>
    <rect class="cls-3" x="1" y="16" width="26" height="1"/>
    <rect class="cls-3" x="1" y="21" width="26" height="1"/>
    <rect class="cls-3" x="-5.5" y="13.5" width="24" height="1" transform="translate(-7.5 20.5) rotate(-90)"/>
    <rect class="cls-3" x="9.5" y="13.5" width="24" height="1" transform="translate(7.5 35.5) rotate(-90)"/>
    <rect class="cls-4" x="7" y="7" width="14" height="4"/>
    <rect class="cls-5" x="7" y="2" width="14" height="4"/>
    <rect class="cls-1" x="7" y="12" width="14" height="4"/>
    <rect class="cls-6" x="7" y="17" width="14" height="4"/>
    <rect class="cls-7" x="7" y="22" width="14" height="4"/>
    <rect class="cls-8" x="14" y="4" width="6" height="1"/>
    <rect class="cls-8" x="14" y="9" width="6" height="1"/>
    <rect class="cls-8" x="14" y="14" width="6" height="1"/>
    <rect class="cls-8" x="14" y="19" width="6" height="1"/>
    <rect class="cls-8" x="14" y="24" width="6" height="1"/>
  </g>
</svg>
