<svg id="Layer_1" data-name="Layer 1" xmlns="http://www.w3.org/2000/svg" width="14" height="14" viewBox="0 0 14 14">
  <defs>
    <style>
      .cls-1 {
        fill: #d65532;
      }

      .cls-2 {
        fill: #9e381c;
      }
    </style>
  </defs>
  <title>Artboard 33</title>
  <g>
    <polygon class="cls-1" points="13.29 2.93 11.07 0.71 7 4.78 2.93 0.71 0.71 2.93 4.78 7 0.71 11.07 2.93 13.29 7 9.22 11.07 13.29 13.29 11.07 9.22 7 13.29 2.93"/>
    <path class="cls-2" d="M11.07,14,7,9.93,2.93,14,0,11.07,4.07,7,0,2.93,2.93,0,7,4.07,11.07,0,14,2.93,9.93,7,14,11.07ZM7,8.51l4.07,4.08,1.52-1.52L8.51,7l4.08-4.07L11.07,1.42,7,5.49,2.93,1.41,1.41,2.93,5.49,7,1.41,11.07l1.52,1.51Z"/>
  </g>
</svg>
