<svg id="Layer_1" data-name="Layer 1" xmlns="http://www.w3.org/2000/svg" width="14" height="14" viewBox="0 0 14 14">
  <defs>
    <style>
      .cls-1 {
        fill: #eac282;
      }

      .cls-2 {
        fill: #a4802b;
      }
    </style>
  </defs>
  <title>Artboard 36</title>
  <g>
    <polygon class="cls-1" points="11.5 12.41 11 12.87 7 10.18 3 12.87 2.5 12.41 4.61 8.19 0.5 5.2 0.5 4.5 5.17 4.5 6.75 0.5 7.25 0.5 8.84 4.5 13.5 4.5 13.5 5.2 9.39 8.19 11.5 12.41"/>
    <path class="cls-2" d="M11,13.5,7,10.78,3,13.5l-1.08-1L4,8.35,0,5.45V4H4.83L6.41,0H7.59L9.18,4H14V5.45l-4,2.9,2.09,4.18ZM7,9.57l3.8,2.56L8.75,8l4.17-3H8.5L7,1.23,5.51,5H1.08L5.25,8l-2,4.09Z"/>
  </g>
</svg>
