<svg id="Layer_1" data-name="Layer 1" xmlns="http://www.w3.org/2000/svg" width="14" height="14" viewBox="0 0 14 14">
  <defs>
    <style>
      .cls-1 {
        fill: #505050;
      }

      .cls-2 {
        fill: #313131;
      }

      .cls-3 {
        fill: #eac282;
      }
    </style>
  </defs>
  <title>Artboard 15</title>
  <g>
    <rect class="cls-1" x="0.5" y="0.5" width="13" height="13" rx="1" ry="1"/>
    <path class="cls-2" d="M12.5,14H1.5A1.5,1.5,0,0,1,0,12.5V1.5A1.5,1.5,0,0,1,1.5,0h11A1.5,1.5,0,0,1,14,1.5v11A1.5,1.5,0,0,1,12.5,14ZM1.5,1a.5.5,0,0,0-.5.5v11a.5.5,0,0,0,.5.5h11a.5.5,0,0,0,.5-.5V1.5a.5.5,0,0,0-.5-.5Z"/>
  </g>
  <circle class="cls-3" cx="7" cy="7" r="4"/>
</svg>
