<?xml version="1.0" encoding="UTF-8"?>
<svg width="18px" height="18px" viewBox="0 0 18 18" version="1.1" xmlns="http://www.w3.org/2000/svg" xmlns:xlink="http://www.w3.org/1999/xlink">
    <!-- Generator: Sketch 49.2 (51160) - http://www.bohemiancoding.com/sketch -->
    <title>18X18</title>
    <desc>Created with Sketch.</desc>
    <defs></defs>
    <g id="18X18" stroke="none" stroke-width="1" fill="none" fill-rule="evenodd">
        <g id="Group-2" fill="#D30018" fill-rule="nonzero">
            <path d="M9.0209165,2 L9.0209165,3.5 L2,3.5 C1.72385763,3.5 1.5,3.72385763 1.5,4 L1.5,16 C1.5,16.2761424 1.72385763,16.5 2,16.5 L14,16.5 C14.2761424,16.5 14.5,16.2761424 14.5,16 L14.5,9.07478297 L16,9.07478297 L16,16 C16,17.1045695 15.1045695,18 14,18 L2,18 C0.8954305,18 1.3527075e-16,17.1045695 0,16 L0,4 C-1.3527075e-16,2.8954305 0.8954305,2 2,2 L9.0209165,2 Z" id="Rectangle"></path>
            <g id="Group" transform="translate(10.000000, 0.000000)">
                <path d="M2.02203258,7.13660876 C1.80502957,7.42690202 1.39378469,7.48631551 1.10349143,7.2693125 C0.813198169,7.05230949 0.753784681,6.64106461 0.97078769,6.35077135 L5.28975648,0.573120907 C5.50675949,0.282827647 5.91800437,0.223414159 6.20829763,0.440417168 C6.49859089,0.657420177 6.55800438,1.06866506 6.34100137,1.35895832 L2.02203258,7.13660876 Z" id="Path-2" transform="translate(3.655895, 3.854865) rotate(5.000000) translate(-3.655895, -3.854865) "></path>
                <path d="M2.02203258,7.13660876 C1.80502957,7.42690202 1.39378469,7.48631551 1.10349143,7.2693125 C0.813198169,7.05230949 0.753784681,6.64106461 0.97078769,6.35077135 L5.28975648,0.573120907 C5.50675949,0.282827647 5.91800437,0.223414159 6.20829763,0.440417168 C6.49859089,0.657420177 6.55800438,1.06866506 6.34100137,1.35895832 L2.02203258,7.13660876 Z" id="Path-2" transform="translate(3.655895, 3.854865) scale(-1, 1) rotate(5.000000) translate(-3.655895, -3.854865) "></path>
            </g>
        </g>
    </g>
</svg>