<?xml version="1.0" standalone="no"?>
<!DOCTYPE svg PUBLIC "-//W3C//DTD SVG 1.1//EN" "http://www.w3.org/Graphics/SVG/1.1/DTD/svg11.dtd" >
<svg xmlns="http://www.w3.org/2000/svg">
<metadata>Generated by IcoMoon</metadata>
<defs>
<font id="ejrbnicons" horiz-adv-x="1024">
<font-face units-per-em="1024" ascent="960" descent="-64" />
<missing-glyph horiz-adv-x="1024" />
<glyph unicode="&#x20;" d="" horiz-adv-x="512" />
<glyph unicode="&#xe155;" d="M132.032 699.968h640v-64h-640v64zM260.032 571.968h384v-64h-384v64zM132.032 443.968h640v-64h-640v64zM260.032 315.968h384v-64h-384v64z" />
<glyph unicode="&#xe156;" d="M196.032 699.968h640v-64h-640v64zM196.032 443.968h640v-64h-640v64zM196.032 571.968h384v-64h-384v64zM196.032 315.968h384v-64h-384v64z" />
<glyph unicode="&#xe157;" d="M196.032 699.968h640v-64h-640v64zM452.032 571.968h384v-64h-384v64zM196.032 443.968h640v-64h-640v64zM452.032 315.968h384v-64h-384v64z" />
<glyph unicode="&#xe158;" d="M743.253 774.69c-1.331-35.669 2.97-79.94-2.253-111.582-4.676-3.174-17.92-4.813-23.996-2.355-17.306 16.35-12.015 64.887-36.659 74.377-14.643 5.734-39.014 20.070-61.85 20.070-59.358 0-137.387 0-190.942 0 9.318 0 29.457-63.795 46.899-83.661 51.78-59.017 114.859-117.35 163.567-181.248-14.029-25.668-35.226-51.029-54.886-71.168-20.002-20.514-39.868-43.281-59.46-64.137-38.946-41.131-82.5-80.247-109.875-133.188 41.097-2.219 84.139-1.877 131.652-1.877 50.005 0 115.029-8.533 140.663 13.039 7.202 6.178 12.459 16.623 18.33 27.853 5.086 9.899 15.019 23.552 25.498 24.098 25.395 1.092 20.992-51.029 20.992-75.23 0-15.701 0-29.935 0-46.080 0-12.868-2.423-40.311-8.431-46.524-7.134-7.714-42.598-10.411-62.191-10.411-125.85 0-247.603 0-377.617 0-12.561 0-47.889 0.751-51.439 16.247-3.243 14.677 18.876 39.731 27.546 50.142 79.701 97.417 168.346 170.871 249.344 269.21-34.031 60.484-85.845 102.605-138.479 158.31-35.191 37.239-71.236 71.68-108.646 112.981-14.37 15.906-46.251 51.814-19.388 68.267 9.011 5.598 41.233 7.509 61.747 7.509 134.178 0 270.848 0 403.866 0 4.198 0 9.899-12.356 16.009-14.643z" />
<glyph unicode="&#xe159;" d="M476.69 147.862h-194.207v589.683c105.931 3.531 141.241 7.062 173.021 7.062 60.028 0 112.993-14.124 144.772-38.841 35.31-24.717 52.966-63.559 52.966-112.993 0-45.903-24.717-84.745-74.152-109.462 74.152-24.717 109.462-77.683 109.462-155.366 0-52.966-21.186-98.869-60.028-130.648s-88.276-49.434-151.834-49.434zM388.414 656.331v-141.241c35.31 0 38.841 0 56.497 0 67.090 0 105.931 24.717 105.931 77.683 0 45.903-35.31 67.090-98.869 67.090-17.655-3.531-28.248-3.531-63.559-3.531zM388.414 433.876v-194.207c35.31-3.531 45.903-3.531 56.497-3.531 45.903 0 84.745 7.062 105.931 24.717 21.186 14.124 31.779 42.372 31.779 77.683 0 31.779-10.593 56.497-28.248 74.152-21.186 14.124-60.028 21.186-109.462 21.186-10.593 0-21.186 0-56.497 0zM988.69 924.69v35.31h-988.69v-1024h988.69v988.69zM953.379-28.69h-918.069v953.379h918.069v-953.379z" horiz-adv-x="989" />
<glyph unicode="&#xe15a;" d="M588.16 467.008c60.416-14.080 102.784-31.104 127.232-51.2 35.072-28.416 52.608-65.344 52.608-110.72 0-47.872-19.264-89.28-57.728-120.512-47.296-37.888-115.968-58.56-206.080-58.56h-312.192v20.864c0 0 43.776 2.752 54.272 8.192 10.496 5.504 8.448 12.608 12.736 21.376 4.16 8.768-3.008 30.4-3.008 64.768v413.12c0 34.368 4.352 56.064 0.192 65.024-4.224 8.896-2.816 16-13.44 21.312s-50.752 8-50.752 8v17.344h293.888c72.96 0 124.544-6.528 154.88-19.52 30.336-12.928 54.272-32.384 71.808-58.176s26.304-53.248 26.304-82.368c0-30.656-11.136-57.984-33.344-81.92s-61.376-42.944-117.376-57.024zM448 443.072v-204.16l-15.744-23.552c0-16.896-3.392-29.632 5.248-38.272 8.576-8.512 17.408-12.8 34.368-12.8 25.024 0 46.208 5.568 67.328 16.64 21.12 11.136 36.288 27.264 47.616 48.384 11.264 21.12 16.448 44.672 16.448 70.656 0 29.76-7.104 56.448-20.864 80.064-13.824 23.616-17.536 40.128-41.6 49.472-24.192 9.344-92.8 13.888-92.8 13.568zM448 479.68c0 0 61.888 4.992 83.008 14.976s29.696 24.128 40.96 42.24 13.056 41.344 13.056 69.44c0 28.16-7.424 51.264-18.56 69.248s-12.608 31.68-33.28 41.088c-20.672 9.472-85.184 13.952-85.184 13.632v-250.624z" />
<glyph unicode="&#xe15b;" d="M388.032 827.968h512v-64h-512v64zM388.032 507.968h512v-64h-512v64zM388.032 187.968h512v-64h-512v64zM260.032 795.968c0-53.019-42.981-96-96-96s-96 42.981-96 96c0 53.019 42.981 96 96 96s96-42.981 96-96zM260.032 475.968c0-53.019-42.981-96-96-96s-96 42.981-96 96c0 53.019 42.981 96 96 96s96-42.981 96-96zM260.032 155.968c0-53.019-42.981-96-96-96s-96 42.981-96 96c0 53.019 42.981 96 96 96s96-42.981 96-96z" />
<glyph unicode="&#xe15c;" d="M443.733 789.333h136.533v-682.667h-136.533v682.667zM648.533 652.8h136.533v-546.133h-136.533v546.133zM238.933 584.533h136.533v-477.867h-136.533v477.867z" />
<glyph unicode="&#xe15d;" d="M819.2 721.067h-375.467v-34.133h375.467v-375.467h-136.533v-136.533h-477.867v307.2h-34.133v-341.333h546.133v34.133h34.133v34.133h-34.133v68.267h68.267v-34.133h34.133v34.133h34.133v443.733zM750.933 243.2h34.133v-34.133h-34.133v34.133zM170.667 721.067h170.667v-34.133h-170.667v34.133zM307.2 721.067h34.133v-170.667h-34.133v170.667zM170.667 584.533h170.667v-34.133h-170.667v34.133zM170.667 721.067h34.133v-170.667h-34.133v170.667zM341.333 755.2h34.133v-34.133h-34.133v34.133zM341.333 550.4h34.133v-34.133h-34.133v34.133zM136.533 550.4h34.133v-34.133h-34.133v34.133zM136.533 755.2h34.133v-34.133h-34.133v34.133zM238.933 755.2h34.133v-34.133h-34.133v34.133zM238.933 550.4h34.133v-34.133h-34.133v34.133zM341.333 652.8h34.133v-34.133h-34.133v34.133zM136.533 652.8h34.133v-34.133h-34.133v34.133z" />
<glyph unicode="&#xe15e;" d="M768 574.016h-192l-128-192v-256h384v448h-64zM768 190.016h-256v128h128v192h128v-320zM384 574.016h64v192h192v-128h64v192h-320l-192-192v-448h192v64h-128v320z" />
<glyph unicode="&#xe15f;" d="M562.56 172.032c13.376 43.904 10.304 87.68-5.376 123.264l0.576 0.384-49.6 89.92 70.016 38.656 303.616 28.032 88.64 48.96-369.792 15.616-5.696 10.24 187.456 328.128-86.528-47.744-191.872-251.2-68.992-38.144-43.328 78.336-0.576-0.384c-20.672 37.504-58.496 68.48-107.904 81.984-89.216 24.256-180.352-17.344-203.392-92.864-23.104-75.584 30.656-156.608 119.872-180.8 48.768-13.312 97.664-6.4 136.192 14.4l0.384-0.512 81.984 45.312 34.816-63.040-82.048-45.312 0.32-0.64c-38.208-21.504-70.080-59.136-84.864-107.52-27.008-88.576 12.864-177.152 89.216-197.888 76.096-20.608 159.872 34.304 186.88 122.816zM211.904 444.48c-36.672 10.048-67.136 32.512-83.392 62.016-8.512 15.36-16.768 39.68-8.32 67.712 7.616 24.512 26.624 44.928 53.44 57.216 29.248 13.248 63.808 15.552 97.408 6.464 36.672-9.984 67.072-32.576 83.2-61.888 8.704-15.488 17.088-39.808 8.512-67.776-16.384-53.248-83.968-81.92-150.848-63.744zM387.776 89.408c-28.224 7.808-44.352 27.776-52.8 43.264-16.256 29.312-19.136 67.072-8.064 103.488 20.288 66.304 80.512 108.224 134.4 93.504 28.096-7.488 44.16-27.648 52.8-43.072 16.128-29.376 19.072-67.2 8-103.552-10.24-33.28-30.656-61.248-57.344-78.848-24.768-16.192-52.096-21.44-76.992-14.784z" />
<glyph unicode="&#xe160;" d="M682.667 140.8c-103.492 0-187.733 84.241-187.733 187.733s84.241 187.733 187.733 187.733 187.733-84.241 187.733-187.733-84.241-187.733-187.733-187.733zM682.667 482.133c-84.685 0-153.6-68.915-153.6-153.6s68.915-153.6 153.6-153.6 153.6 68.915 153.6 153.6-68.915 153.6-153.6 153.6zM136.533 721.067h68.267v-68.267h-68.267v68.267zM750.933 584.533v68.267h-204.8v68.267h-204.8v-68.267h-204.8v-512h341.333v68.267h-273.067v375.467zM682.667 721.067h68.267v-68.267h-68.267v68.267zM682.667 584.533h68.267v-34.133h-68.267v34.133zM238.933 789.333h68.267v-102.4h-68.267v102.4zM580.267 789.333h68.267v-102.4h-68.267v102.4zM682.667 311.467h34.133v-34.133h-34.133v34.133zM648.533 413.867h34.133v-102.4h-34.133v102.4z" />
<glyph unicode="&#xe161;" d="M324.032 827.968h256v-64h-256v64zM196.032 763.968h512v-64h-512v64zM196.032 635.968h128v-512h-128v512zM580.032 635.968h128v-512h-128v512zM196.032 187.968h512v-64h-512v64zM388.032 635.968h128v-512h-128v512z" />
<glyph unicode="&#xe162;" d="M420.318 183.433c0 0.887-13.687 2.287-24.576 4.437l24.132 12.186c-26.863 43.657-42.974 86.869-54.784 128.853 54.374 14.711 106.974 15.121 153.19 12.117-0.99-3.311-1.229-12.971-2.219-12.971h24.371c0.785 0 1.843 5.257 2.526 7.817 16.896-1.877 32.87-7.817 47.991-7.817h82.534c-32.87 24.61-75.264 27.75-124.484 33.758 7.202 29.594 11.674 64.649 14.097 89.259h188.621c-3.345-49.186-16.179-73.83-35.635-123.017h26.795c21.163 49.186 33.417 92.74 33.417 143.087 0 52.599-15.531 106.018-38.434 149.675 2.423 1.297-2.662-0.307-0.341 0.922l-9.694 20.378c-0.239-0.171 4.847-0.102 0.785-2.287-55.74 89.532-154.692 149.504-267.639 149.504-105.847 0-204.971-50.449-256.717-132.881-5.734 3.413 9.353 0.649 3.652 4.301l-15.087-19.593c5.769-3.652-6.929-0.58-1.195-4.028-28.945-47.616-45.909-103.253-45.909-162.953 0-71.782 23.211-137.865 63.727-190.908-4.403-2.867 4.676 1.809 0.273-1.195l14.507-21.675c4.983 3.379-4.983-3.243 0 0 52.907-59.563 122.3-94.003 196.096-100.25v23.279zM525.585 367.138c-49.698 3.721-105.267 0.614-164.113-15.223-7.851 34.133-11.571 74.615-12.083 99.226h190.327c-2.492-24.644-6.997-55.228-14.131-84.002zM541.423 475.716h-191.863c1.058 24.61 5.291 64.751 11.674 94.242 40.414-8.841 79.394-13.073 115.78-13.073 21.811 0 42.53 1.946 62.396 4.164 2.628-26.931 3.482-60.757 2.014-85.333zM752.845 475.716h-188.211c1.468 24.61 0.512 60.279-2.287 88.132 70.69 10.65 125.918 32.529 157.047 46.899 21.299-40.516 33.451-85.777 33.451-135.031zM707.55 629.692c-29.628-13.619-81.647-33.587-147.9-43.657-11.196 81.749-35.908 144.452-50.415 175.718 83.422-13.995 154.829-63.249 198.315-132.062zM460.971 766.054c6.997 0 13.858-0.58 20.753-1.058 10.684-20.753 42.121-88.201 54.955-181.965-50.654-5.53-108.407-4.881-170.121 8.567 23.552 90.761 64.034 155.136 76.527 173.534 5.939 0.41 11.844 0.922 17.886 0.922zM413.252 761.822c-18.432-30.242-49.596-88.644-69.325-164.727-38.605 10.274-78.609 25.805-119.262 47.855 44.237 60.962 111.275 104.038 188.587 116.873zM211.729 626.074c43.213-23.586 85.743-39.492 126.839-50.381-6.758-31.095-11.332-75.401-12.425-99.977h-157.082c0 49.254 15.77 106.223 42.667 150.357zM170.291 451.14h155.716c0.546-24.644 4.54-69.495 12.971-105.95-35.26-11.366-71.646-27.341-108.476-49.254-33.86 43.657-55.637 105.984-60.211 155.204zM245.794 277.572c33.587 19.695 66.731 34.27 99.021 44.715 12.39-43.759 31.471-88.883 59.46-134.417-62.259 12.288-117.18 44.646-158.481 89.702zM601.122 193.946v23.381h-2.492c-6.758-3.652-13.79-6.861-20.821-10.001v-13.38h23.313zM592.555 180.497h-49.22v49.186h172.271v-24.61h49.186v49.186h-24.61v24.644h-24.576v24.644h-221.491v-24.644h-24.61v-24.644h-24.576v-98.372h24.576v-24.61h24.61v-24.61h147.661v24.61h-24.576v24.61h-24.644zM887.808 254.259v24.644h-24.576v24.644h-123.051v-24.644h24.61v-49.22h49.186v-49.186h-98.372v24.576h-98.406v-49.186h49.186v-49.22h172.237v24.61h49.186v24.61h24.644v98.372zM641.775 155.887h24.61v-24.644h-24.61v24.644zM838.622 131.277h24.61v-24.61h-24.61v24.61z" />
<glyph unicode="&#xe163;" d="M433.472 785.472l5.504 18.496h331.008l-6.464-18.496c-30.016 0-52.928-6.656-68.736-20.032-15.936-13.312-29.76-41.152-41.792-83.456l-123.968-434.048c-9.024-30.656-13.504-51.2-13.504-61.504 0-12.032 4.608-21.312 14.016-28.032 12.032-8.704 34.624-13.312 68.032-14.016l-4.992-18.496h-336.576l5.504 18.496c33.6 0 58.304 6.464 73.984 19.264 15.616 12.8 29.824 40.96 42.496 84.224l124.992 433.984c7.616 26.688 11.52 46.784 11.52 60.48 0 12.288-4.672 22.016-14.016 28.992-9.344 7.168-31.68 11.84-67.008 14.144z" />
<glyph unicode="&#xe164;" d="M132.032 699.968h640v-64h-640v64zM132.032 571.968h640v-64h-640v64zM132.032 443.968h640v-64h-640v64zM132.032 315.968h640v-64h-640v64z" />
<glyph unicode="&#xe165;" d="M815.616 288.384c-42.752-37.76-81.152-56.64-115.136-56.64-20.032 0-36.608 6.592-49.856 19.712s-19.904 29.568-19.904 49.344c0 26.752 11.52 50.816 34.496 72.192s73.152 49.792 150.4 85.312v35.2c0 26.496-1.408 43.2-4.288 50.048s-8.32 12.864-16.32 17.984-17.024 7.68-27.008 7.68c-16.256 0-29.632-3.648-40.128-10.88-6.528-4.48-9.728-9.728-9.728-15.744 0-5.248 3.52-11.776 10.496-19.52 9.472-10.752 14.272-21.12 14.272-31.104 0-12.224-4.544-22.656-13.696-31.296s-21.056-12.928-35.84-12.928c-15.744 0-28.928 4.736-39.552 14.272s-15.936 20.608-15.936 33.408c0 17.984 7.104 35.2 21.376 51.584s34.112 28.928 59.648 37.696 52.032 13.12 79.488 13.12c33.28 0 59.584-7.040 78.912-21.184s31.936-29.44 37.696-45.952c3.52-10.496 5.248-34.624 5.248-72.384v-136.128c0-16 0.64-26.048 1.856-30.208s3.136-7.168 5.632-9.216 5.376-3.008 8.64-3.008c6.528 0 13.12 4.608 19.904 13.888l11.264-9.024c-12.48-18.496-25.408-31.936-38.784-40.32s-28.544-12.544-45.568-12.544c-20.032 0-35.648 4.672-46.848 14.080s-18.24 23.552-20.736 42.56zM815.616 315.776v117.376c-30.272-17.728-52.736-36.736-67.52-57.024-9.728-13.504-14.656-27.136-14.656-40.896 0-11.52 4.096-21.632 12.352-30.4 6.272-6.72 14.976-10.112 26.24-10.112 12.608 0.064 27.072 7.040 43.584 21.056zM271.488 318.016c-6.976-16.512-10.752-25.856-11.264-28.096-1.472-4.8-2.24-9.408-2.24-13.888 0-7.488 2.752-13.248 8.256-17.28 8-5.504 21.888-8.256 41.664-8.256h10.112v-13.888h-246.016v13.888c15.488 1.28 27.52 5.76 36.032 13.504 11.264 10.24 25.6 35.136 43.136 74.624l183.36 417.024h7.104l181.888-405.76c17.28-38.72 31.744-64.32 43.52-76.672s26.688-19.968 44.992-22.72v-13.888h-169.152v13.888c26.496 1.984 43.136 4.992 49.856 9.024 11.52 6.72 17.28 17.28 17.28 31.488 0 10.752-3.52 24.384-10.496 40.896l-21.376 49.472h-179.648l-27.008-63.36zM465.024 409.152l-78.016 175.104-75.776-175.104h153.792z" />
<glyph unicode="&#xe166;" d="M988.69 924.69v35.31h-988.69v-1024h988.69v988.69zM953.379-28.69h-918.069v953.379h918.069v-953.379zM667.366 571.586h-190.676l-123.586-123.586v-300.138h353.103v423.724h-38.841zM388.414 183.172v211.862h141.241v141.241h141.241v-353.103h-282.483zM388.414 253.793h-105.931v317.793h105.931v141.241h211.862v-176.552h35.31v211.862h-254.234l-134.179-141.241v-388.414h141.241z" horiz-adv-x="989" />
<glyph unicode="&#xe167;" d="M440.183 789.333l-131.55-96.973-103.834-60.689v-525.005h580.267v682.667h-344.883zM716.8 174.933h-443.733v375.467h170.667v170.667h273.067v-546.133z" />
<glyph unicode="&#xe168;" d="M384 766.016h512v-64h-512v64zM384 446.016h512v-64h-512v64zM384 126.016h512v-64h-512v64zM64 190.016h64v-64h64v64h64v64h-192zM192 126.016h64v-64h-64v64zM64 62.016h128v-64h-128v64zM64 574.016h128v-64h-128v64zM192 510.016h64v-64h-64v64zM128 382.016h-64v-64h192v64h-64v64h-64zM192 894.016h-64v-64h-64v-64h64v-64h-64v-64h192v64h-64z" />
<glyph unicode="&#xe169;" d="M724.514 404.992h-199.168v-366.592l313.754 0.478v253.167l-114.586 112.947zM811.076 65.843l-256.683-0.512v312.695h170.086v-86.016h86.562v-226.167zM620.885 741.41c0.137-1.195 0.41-2.287 0.41-3.55v-44.681c0-24.883-20.275-45.124-45.124-45.124h-304.435c-24.883 0-45.158 20.275-45.158 45.124v44.681c0 1.229 0.273 2.321 0.375 3.55h-90.419v-648.806h356.147v342.016h218.658v306.79h-90.453zM555.725 763.938h-62.566v35.123c0 13.483-9.523 24.405-21.265 24.405h-87.723c-11.742 0-21.231-10.923-21.231-24.405v-35.123h-70.827c-13.517 0-24.405-10.923-24.405-24.439v-38.707c0-13.483 10.889-24.405 24.405-24.405h263.646c13.517 0 24.439 10.923 24.439 24.405v38.707c-0.034 13.517-10.923 24.439-24.474 24.439zM458.684 736.085h-59.187v50.859h59.153v-50.859zM375.467 789.333h34.133v-68.267h-34.133v68.267zM443.733 789.333h34.133v-68.267h-34.133v68.267zM580.267 686.933h34.133v-68.267h-34.133v68.267zM238.933 686.933h34.133v-68.267h-34.133v68.267zM375.467 755.2h68.267v-34.133h-68.267v34.133z" />
<glyph unicode="&#xe16a;" d="M409.6 516.267h-34.133v-34.133h-34.133v-34.133h-34.133v-34.133h-68.267v-68.267h-34.133v-136.533h-34.133v580.267h580.267v-273.067h34.133v307.2h-648.533v-648.533h307.2v307.2h-34.133zM682.667 618.667v34.133h34.133v68.267h-136.533v-68.267h34.133v-34.133zM819.2 482.133h-341.333v-273.067h170.667v-34.133h-68.267v-34.133h170.667v34.133h-68.267v34.133h170.667v273.067h-34.133zM819.2 243.2h-307.2v204.8h307.2v-204.8z" />
<glyph unicode="&#xe16b;" d="M273.067 482.133v136.533h170.667v170.667h273.067v-307.2h34.133v341.333h-276.617l-131.55-96.973-103.834-60.689v-183.671zM716.8 311.467v-238.933h-443.733v238.933h-34.133v-273.067h512v273.067zM341.333 277.333h307.2v-34.133h-307.2v34.133zM341.333 174.933h307.2v-34.133h-307.2v34.133zM68.267 550.4v-409.6h204.8v204.8h443.733v-204.8h204.8v409.6h-853.333zM887.467 448h-68.267v68.267h68.267v-68.267z" />
<glyph unicode="&#xe16c;" d="M512 311.467v68.267h68.267v68.267h170.667v-136.533h34.133v170.667h-165.239l-78.814-54.784-63.147-34.304v-81.579zM750.933 209.067v-136.533h-238.933v136.533h-34.133v-170.667h307.2v170.667zM546.133 174.933h170.667v-34.133h-170.667v34.133zM853.333 311.467h-477.867v-204.8h136.533v102.4h238.933v-102.4h136.533v204.8h-34.133zM853.333 269.892v-26.692h-34.133v26.692h-4.471v38.605h4.471v-31.164h34.133v-7.441zM170.667 857.6h34.133v-512h-34.133v512zM170.667 857.6h546.133v-34.133h-546.133v34.133zM716.8 857.6h34.133v-341.333h-34.133v341.333zM170.667 618.667h580.267v-34.133h-580.267v34.133zM443.733 857.6h34.133v-409.6h-34.133v409.6zM170.667 379.733h204.8v-34.133h-204.8v34.133z" />
<glyph unicode="&#xe16d;" d="M272.35 840.533h115.917v-159.3h-115.917v159.3zM769.024 840.533v-199.1h-548.181v199.1h-84.309v-716.8h716.8v716.8h-84.309zM220.843 203.366v79.667h548.181v-79.667h-548.181z" />
<glyph unicode="&#xe16e;" d="M136.533 721.067h34.133v-443.733h-34.133v443.733zM170.667 311.467h102.4v-34.133h-102.4v34.133zM136.533 721.067h409.6v-34.133h-409.6v34.133zM443.733 789.333h34.133v-68.267h-34.133v68.267zM443.733 789.333h307.2v-34.133h-307.2v34.133zM750.933 755.2h34.133v-34.133h-34.133v34.133zM785.067 721.067h34.133v-68.267h-34.133v68.267zM819.2 652.8h34.133v-170.667h-34.133v170.667zM785.067 482.133h34.133v-68.267h-34.133v68.267zM750.933 413.867h34.133v-68.267h-34.133v68.267zM546.133 721.067h34.133v-204.8h-34.133v204.8zM477.867 516.267h34.133v-34.133h-34.133v34.133zM477.867 140.8h34.133v-34.133h-34.133v34.133zM512 482.133h34.133v-34.133h-34.133v34.133zM546.133 448h34.133v-34.133h-34.133v34.133zM580.267 413.867h34.133v-34.133h-34.133v34.133zM614.4 379.733h34.133v-34.133h-34.133v34.133zM648.533 345.6h34.133v-68.267h-34.133v68.267zM614.4 277.333h34.133v-34.133h-34.133v34.133zM580.267 243.2h34.133v-34.133h-34.133v34.133zM546.133 209.067h34.133v-34.133h-34.133v34.133zM512 174.933h34.133v-34.133h-34.133v34.133zM443.733 174.933h34.133v-34.133h-34.133v34.133zM409.6 209.067h34.133v-34.133h-34.133v34.133zM375.467 243.2h34.133v-34.133h-34.133v34.133zM341.333 277.333h34.133v-34.133h-34.133v34.133zM307.2 311.467h34.133v-34.133h-34.133v34.133zM307.2 345.6h34.133v-34.133h-34.133v34.133zM341.333 379.733h34.133v-34.133h-34.133v34.133zM375.467 413.867h34.133v-34.133h-34.133v34.133zM409.6 448h34.133v-34.133h-34.133v34.133zM443.733 482.133h34.133v-34.133h-34.133v34.133zM716.8 345.6h34.133v-34.133h-34.133v34.133z" />
<glyph unicode="&#xe16f;" d="M291.712 322.176l-3.84 32.64h-1.536c-14.464-20.288-42.24-38.528-79.104-38.528-52.48 0.064-79.232 36.928-79.232 74.432 0 62.528 55.616 96.768 155.648 96.256v5.312c0 21.44-5.888 59.968-58.752 59.968-24.128 0-49.28-7.488-67.456-19.264l-10.752 31.040c21.44 13.888 52.416 22.912 85.12 22.912 79.104 0 98.368-54.016 98.368-105.856v-96.832c0-22.464 1.088-44.352 4.288-62.080h-42.752zM284.736 454.336c-51.392 1.024-109.632-8-109.632-58.24 0-30.528 20.288-44.992 44.288-44.992 33.664 0 55.104 21.44 62.656 43.392 1.6 4.8 2.688 10.112 2.688 14.912v44.928zM403.968 322.176c1.088 17.728 2.176 43.904 2.176 66.88v312.96h46.528v-162.624h1.088c16.64 28.864 46.592 47.552 88.256 47.552 64.192 0 109.632-53.44 109.12-132.032 0-92.544-58.304-138.56-116.032-138.56-37.44 0-67.392 14.464-86.656 48.704h-1.728l-2.176-42.88h-40.576zM452.608 425.984c0-5.888 1.088-11.776 2.112-17.152 9.152-32.64 36.352-55.040 70.656-55.040 49.216 0 78.656 40.064 78.656 99.456 0 51.904-26.752 96.32-76.992 96.32-32.064 0-62.144-21.952-71.68-57.792-1.088-5.312-2.752-11.776-2.752-19.264v-46.528zM894.912 331.904c-12.288-6.464-39.616-14.976-74.368-14.976-78.144 0-128.96 52.928-128.96 132.096 0 79.68 54.592 137.408 139.072 137.408 27.904 0 52.416-6.912 65.344-13.376l-10.752-36.352c-11.2 6.464-28.864 12.288-54.592 12.288-59.392 0-91.456-43.904-91.456-97.856 0-59.968 38.528-96.832 89.856-96.832 26.752 0 44.352 6.912 57.728 12.8l8.128-35.2zM128 455.104h768v-64h-768v64z" />
<glyph unicode="&#xe170;" d="M832 318.016h128v-64h-128v64zM768 254.016h64v-64h-64v64zM1024 126.016v128h-64v-64h-64v-64h64zM832 126.016v-64h-64v-64h256v64h-128v64zM442.496 587.072l193.152-248.576c21.248-27.52 28.736-44.992 37.952-52.48s30.4-12.48 30.4-14.976v-17.024h-256v17.024c64 3.776 36.992 11.904 36.992 24.384 0 6.592-1.216 17.216-12.48 31.872l-117.12 154.56-119.552-149.44c-12.8-16.576-15.232-28.224-15.232-35.136-0.064-15.616 35.392-24.384 35.392-26.24v-17.024h-256v17.024c0 1.536 27.2 5.632 35.2 12.16 7.936 6.592 24.768 25.024 48.832 55.296l195.968 243.2-179.904 233.088c-23.104 30.272-38.4 48.512-46.080 54.592-7.616 6.080-19.84 8.96-36.672 10.56l-0.448 14.080h239.104v-13.12c0-5.056-19.328-14.592-19.328-28.608 0-7.488 11.072-20.032 24.576-37.504l101.568-127.872 103.872 127.872c14.976 19.072 18.048 32.512 18.048 40.32 0 13.696-36.736 22.272-36.736 25.792v13.12h256v-13.12c0-1.6-23.744-4.928-30.272-10.112-6.4-5.12-21.888-23.808-48.448-56l-182.784-227.712z" />
<glyph unicode="&#xe171;" d="M832 894.016h128v-64h-128v64zM768 830.016h64v-64h-64v64zM1024 702.016v128h-64v-64h-64v-64h64zM832 702.016v-64h-64v-64h256v64h-128v64zM442.496 267.072l193.152-248.576c21.248-27.52 28.736-44.992 37.952-52.48s30.4-12.48 30.4-14.976v-17.024h-256v17.024c64 3.776 36.992 11.904 36.992 24.384 0 6.592-1.216 17.216-12.48 31.872l-117.12 154.56-119.552-149.44c-12.8-16.576-15.232-28.224-15.232-35.136 0-15.616 35.456-24.384 35.456-26.24v-17.024h-256.064v17.024c0 1.536 27.2 5.632 35.2 12.16 7.936 6.592 24.768 25.024 48.896 55.296l195.968 243.2-179.968 233.088c-23.104 30.272-38.4 48.512-46.080 54.592-7.616 6.080-19.84 8.96-36.672 10.56l-0.448 14.080h239.104v-13.12c0-5.056-19.328-14.592-19.328-28.608 0-7.488 11.072-20.032 24.576-37.504l101.568-127.872 103.872 127.872c14.976 19.072 18.048 32.512 18.048 40.32 0 13.696-36.736 22.272-36.736 25.792v13.12h256v-13.12c0-1.6-23.744-4.928-30.272-10.112-6.4-5.12-21.888-23.808-48.448-56l-182.784-227.712z" />
<glyph unicode="&#xe172;" d="M136.533 789.333v-682.667h716.8v682.667h-716.8zM648.533 652.8v-102.4h-136.533v102.4h136.533zM477.867 379.733v-102.4h-136.533v102.4h136.533zM341.333 413.867v102.4h136.533v-102.4h-136.533zM512 379.733h136.533v-102.4h-136.533v102.4zM512 413.867v102.4h136.533v-102.4h-136.533zM477.867 652.8v-102.4h-136.533v102.4h136.533zM170.667 652.8h136.533v-102.4h-136.533v102.4zM170.667 516.267h136.533v-102.4h-136.533v102.4zM170.667 379.733h136.533v-102.4h-136.533v102.4zM170.667 140.8v102.4h136.533v-102.4h-136.533zM341.333 140.8v102.4h136.533v-102.4h-136.533zM512 140.8v102.4h136.533v-102.4h-136.533zM819.2 140.8h-136.533v102.4h136.533v-102.4zM819.2 277.333h-136.533v102.4h136.533v-102.4zM819.2 413.867h-136.533v102.4h136.533v-102.4zM819.2 550.4h-136.533v102.4h136.533v-102.4z" />
<glyph unicode="&#xe173;" d="M238.933 789.333v-682.667h546.133v682.667h-546.133zM750.933 140.8h-477.867v512h477.867v-512zM341.333 550.4h341.333v-68.267h-341.333v68.267zM341.333 413.867h341.333v-68.267h-341.333v68.267zM341.333 277.333h341.333v-68.267h-341.333v68.267z" />
<glyph unicode="&#xe174;" d="M256 446.016h64v128h-64v64h-128v-256h128zM128 830.016h768v-64h-768v64zM448 638.016h448v-64h-448v64zM448 446.016h448v-64h-448v64zM128 254.016h768v-64h-768v64z" />
<glyph unicode="&#xe175;" d="M768 574.016h-64v-128h64v-64h128v256h-128zM128 830.016h768v-64h-768v64zM128 638.016h448v-64h-448v64zM128 446.016h448v-64h-448v64zM128 254.016h768v-64h-768v64z" />
<glyph unicode="&#xe176;" d="M128 62.016v64h704v-64h-704zM256 830.016h128v-314.624c0-47.232-11.584-77.888-8.832-91.904 4.736-22.528 9.536-40.576 27.456-54.208s39.104-20.416 70.144-20.416c31.488 0 53.632 6.464 69.632 19.328s25.536 28.672 28.8 47.424 4.8 49.92 4.8 93.376v321.024h128v-305.6c0-65.984-12.224-112.64-18.24-139.904s-21.696-50.24-37.824-68.992-40-33.664-67.008-44.8-63.424-16.704-106.944-16.704c-52.48 0-92.864 6.080-120 18.176s-48.768 27.904-64.576 47.232-21.888 39.68-26.88 60.928c-7.232 31.552-6.528 78.016-6.528 139.52v310.144z" />
<glyph unicode="&#xe177;" d="M988.69 924.69v35.31h-988.69v-1024h988.69v988.69zM953.379-28.69h-918.069v953.379h918.069v-953.379zM579.090 603.366h-271.89v3.531l98.869 141.241h-98.869l-127.117-176.552 127.117-176.552h95.338l-98.869 144.772h261.297c102.4 0 187.145-74.152 187.145-169.49s-84.745-169.49-187.145-169.49h-7.062v-63.559h21.186c127.117 0 233.048 102.4 233.048 233.048-3.531 127.117-105.931 233.048-233.048 233.048z" horiz-adv-x="989" />
<glyph unicode="&#xe178;" d="M258.368 261.248c-42.752-37.76-81.152-56.64-115.136-56.64-20.032 0-36.608 6.592-49.856 19.712s-19.904 29.568-19.904 49.344c0 26.752 11.52 50.816 34.496 72.192s73.152 49.792 150.4 85.312v35.2c0 26.496-1.408 43.2-4.288 50.048s-8.32 12.864-16.32 17.984-17.024 7.68-27.008 7.68c-16.256 0-29.632-3.648-40.128-10.88-6.528-4.48-9.728-9.728-9.728-15.744 0-5.248 3.52-11.776 10.496-19.52 9.472-10.752 14.272-21.12 14.272-31.104 0-12.224-4.544-22.656-13.696-31.296s-21.056-12.928-35.84-12.928c-15.744 0-28.928 4.736-39.552 14.272s-16 20.608-16 33.408c0 17.984 7.104 35.2 21.376 51.584s34.112 28.928 59.648 37.696 52.032 13.12 79.488 13.12c33.28 0 59.584-7.040 78.912-21.184s31.936-29.44 37.696-45.952c3.52-10.56 5.248-34.688 5.248-72.384v-136.128c0-16 0.64-26.048 1.856-30.208s3.136-7.168 5.632-9.216 5.376-3.008 8.64-3.008c6.528 0 13.12 4.608 19.904 13.888l11.264-9.024c-12.48-18.496-25.408-31.936-38.784-40.32s-28.608-12.544-45.632-12.544c-20.032 0-35.648 4.672-46.848 14.080s-18.112 23.552-20.608 42.56zM258.368 288.64v117.376c-30.272-17.728-52.8-36.736-67.52-57.024-9.728-13.504-14.656-27.136-14.656-40.832 0-11.52 4.096-21.632 12.352-30.4 6.272-6.72 14.976-10.112 26.24-10.112 12.544 0 27.072 6.976 43.584 20.992zM742.464 354.24h-179.648l-21.312-49.472c-7.040-16.512-10.56-30.144-10.56-40.896 0-14.272 5.76-24.768 17.28-31.488 6.72-4.032 23.36-6.976 49.856-9.024v-13.888h-169.088v13.888c18.24 2.752 33.216 10.368 44.992 22.72s26.24 37.952 43.52 76.672l181.824 405.76h7.104l183.36-417.024c17.472-39.488 31.872-64.384 43.136-74.624 8.512-7.744 20.48-12.224 36.032-13.504v-13.888h-246.016v13.888h10.112c19.776 0 33.6 2.752 41.6 8.256 5.504 4.032 8.256 9.728 8.256 17.28 0 4.48-0.768 9.152-2.24 13.888-0.512 2.24-4.224 11.648-11.264 28.096l-26.944 63.36zM729.728 382.016l-75.776 175.104-77.952-175.104h153.728z" />
<glyph unicode="&#xe179;" d="M853.333 823.467h-716.8v-716.8h750.933v716.8h-34.133zM750.933 789.333v-68.267h-68.267v68.267h68.267zM648.533 789.333v-68.267h-68.267v68.267h68.267zM546.133 789.333v-68.267h-68.267v68.267h68.267zM443.733 789.333v-68.267h-68.267v68.267h68.267zM341.333 789.333v-68.267h-68.267v68.267h68.267zM170.667 789.333h68.267v-68.267h-68.267v68.267zM170.667 140.8v68.267h68.267v-68.267h-68.267zM273.067 140.8v68.267h68.267v-68.267h-68.267zM375.467 140.8v68.267h68.267v-68.267h-68.267zM477.867 140.8v68.267h68.267v-68.267h-68.267zM580.267 140.8v68.267h68.267v-68.267h-68.267zM682.667 140.8v68.267h68.267v-68.267h-68.267zM853.333 140.8h-68.267v68.267h68.267v-68.267zM853.333 243.2h-682.667v443.733h682.667v-443.733zM853.333 721.067h-68.267v68.267h68.267v-68.267z" />
<glyph unicode="&#xe17a;" d="M192 64l192 345.6v-25.6h-192v64h320v-32l-256-339.2v-12.8h256v-64h-320v64zM537.6 524.8l-185.6 377.6-179.2-377.6 51.2-25.6 32 76.8h192v12.8l44.8-89.6 44.8 25.6zM288 640l64 140.8 70.4-140.8h-134.4zM768 896h64v-704h-64v704zM640 192h320v-64h-320v64zM704 128h192v-64h-192v64zM768 64h64v-64h-64v64z" />
<glyph unicode="&#xe17b;" d="M889.6 896h-825.6v-896h896v896h-70.4zM448 64h-320v320h320v-320zM448 512h-320v320h320v-320zM896 64h-320v320h320v-320zM896 512h-320v320h320v-320z" />
<glyph unicode="&#xe17c;" d="M684.608 411.776l-95.616 17.28c10.752 38.464 29.248 66.944 55.488 85.44s65.28 27.776 116.992 27.776c46.976 0 81.984-5.568 105.024-16.704s39.168-25.28 48.576-42.368 14.080-48.576 14.080-94.336l-1.152-122.944c0-35.008 1.664-65.344 5.056-81.92s9.664-57.984 18.944-57.984h-104.256c-2.752 0-6.144 21.888-10.112 35.648-1.728 6.272-3.072 12.608-3.84 14.656-17.984-17.472-37.248-29.504-57.728-38.272s-42.432-12.608-65.664-12.608c-41.024 0-73.408 11.456-97.088 33.664s-35.776 50.496-35.776 84.48c0 22.528 4.864 42.624 15.616 60.224s24.704 31.104 44.032 40.512 52.672 17.6 89.216 24.64c49.28 9.28 105.6 17.92 105.6 25.92v10.496c0 20.224-8.192 34.688-18.176 43.328s-28.288 12.928-56.064 12.928c-18.752 0-35.264-3.712-45.76-11.072s-20.864-20.288-27.392-38.784zM832 326.272c0-4.48-38.144-9.856-67.392-16.128s-47.872-12.352-56.896-18.368c-13.76-9.728-22.656-22.144-22.656-37.12 0-14.72 4.224-27.52 15.232-38.272s24-16.128 41.024-16.128c19.008 0 35.904 6.272 53.12 18.752 12.736 9.472 26.304 21.12 30.336 34.88 2.816 9.024 7.232 26.112 7.232 51.392v20.992zM220.096 702.016h117.376l214.144-576h-117.76l-45.376 128h-219.712l-48-128h-120.768l220.096 576zM354.368 382.016l-74.24 204.032-75.776-204.032h150.016z" />
<glyph unicode="&#xe17d;" d="M258.752 294.976c-20.864-17.728-40.896-30.208-60.096-37.504-19.328-7.296-40-10.944-62.080-10.944-36.416 0-64.448 8.896-84.032 26.752-19.648 17.728-29.44 40.512-29.44 68.224 0 16.256 3.712 31.104 11.136 44.48 7.36 13.504 17.088 24.256 28.992 32.384 12.032 8.128 25.472 14.272 40.512 18.432 11.008 2.944 27.776 5.696 49.984 8.448 45.376 5.376 78.912 11.904 100.352 19.392 0.192 7.744 0.32 12.608 0.32 14.656 0 22.912-5.312 39.040-15.936 48.448-14.4 12.8-35.712 19.072-64.064 19.072-26.496 0-46.016-4.608-58.624-13.952-12.544-9.28-21.888-25.6-27.968-49.216l-54.976 7.552c4.992 23.552 13.184 42.56 24.704 57.088 11.52 14.464 28.032 25.6 49.664 33.344 21.696 7.872 46.784 11.776 75.328 11.776 28.352 0 51.392-3.392 69.056-9.984s30.656-15.040 39.040-25.152c8.384-10.112 18.624-22.848 22.016-38.336 1.856-9.536 7.36-26.88 7.36-51.84v-75.008c0-52.288-3.392-85.376-1.024-99.2 2.496-13.888 2.624-27.136 9.792-39.872h-58.752c-5.888 11.648-9.664 25.344-11.264 40.96zM256 420.608c0-8.32-52.032-15.424-92.864-21.248-23.104-3.328-39.872-7.104-49.536-11.264s-17.28-10.24-22.464-18.304c-5.12-8-7.872-16.896-7.872-26.688 0-14.976 5.632-27.52 16.96-37.504 11.392-9.984 27.968-14.976 49.792-14.976 21.632 0 40.96 4.736 57.792 14.208 16.896 9.472 30.336 22.528 38.208 38.912 6.016 12.672 9.984 31.424 9.984 56.192v20.672zM384 254.016v0 448h64v-153.344c0 29.824 39.104 44.736 76.032 44.736 20.416 0 32.256-4.096 50.496-12.352 18.24-8.192 29.504-19.776 41.28-34.624 11.84-14.912 19.136-32.896 25.792-53.952s9.088-43.584 9.088-67.52c0-56.896-14.592-100.8-42.688-131.904s-77.12-46.592-116.48-46.592c-39.232 0.064-43.52 16.448-107.52 49.088v-41.536zM413.44 422.464c0-39.808 5.44-68.544 16.256-86.272 17.664-28.928 41.664-43.456 71.872-43.456 24.576 0 45.824 10.688 63.744 32 17.92 21.376 26.88 53.248 26.88 95.488 0 43.392-8.576 75.328-25.792 95.936-17.152 20.672-37.952 30.976-62.336 30.976-24.576 0-45.824-10.688-63.744-32-17.92-21.376-26.88-52.224-26.88-92.672zM962.752 375.552l55.296-7.168c-6.080-38.144-21.504-68.032-46.464-89.472-24.896-21.632-55.424-32.384-91.712-32.384-45.44 0-81.92 14.848-109.568 44.48-27.584 29.76-41.344 72.256-41.344 127.68 0 35.84 5.952 67.2 17.792 94.080s29.952 46.976 54.208 60.48c24.32 13.376 50.752 20.096 79.232 20.096 36.032 0 65.472-9.152 88.448-27.392 22.912-18.176 37.568-44.096 44.032-77.632l-54.592-8.384c-5.184 22.336-14.464 39.040-27.712 50.304-13.184 11.264-29.184 16.896-47.936 16.896-28.288 0-51.328-10.112-69.056-30.528-17.728-20.224-26.56-52.352-26.56-96.384 0-44.608 8.576-76.992 25.6-97.216s39.36-30.336 66.88-30.336c22.080 0 40.576 6.72 55.296 20.288s24.128 34.496 28.16 62.592zM-64 446.016h1088v-64h-1088v64z" />
<glyph unicode="&#xe17e;" d="M170.496 475.776l-95.616 17.216c10.752 38.528 29.248 67.008 55.488 85.504s65.28 27.776 116.992 27.776c46.976 0 81.984-5.568 105.024-16.704s39.168-25.28 48.576-42.368 14.080-48.576 14.080-94.336l-1.152-122.944c0-35.008 1.664-65.344 5.056-81.92s9.664-57.984 18.944-57.984h-104.256c-2.752 0-6.144 21.888-10.112 35.648-1.792 6.208-3.008 12.608-3.776 14.592-17.984-17.472-37.248-29.504-57.728-38.272s-42.368-12.544-65.664-12.544c-41.024 0-73.344 11.456-96.96 33.664s-35.392 50.56-35.392 84.544c0 22.528 5.376 42.624 16.128 60.224s25.792 31.104 45.184 40.512 51.584 17.6 88.064 24.64c49.28 9.216 106.624 17.856 106.624 25.856v10.496c0 20.224-9.28 34.688-19.264 43.328s-30.976 12.928-58.752 12.928c-18.752 0-34.432-3.712-44.928-11.072s-20.032-20.288-26.56-38.784zM320 390.272c0-4.48-39.104-9.856-68.352-16.128s-50.496-12.352-59.52-18.368c-13.76-9.792-21.696-22.144-21.696-37.12 0-14.72 4.928-27.52 15.936-38.272s24.768-16.128 41.728-16.128c19.008 0 36.992 6.272 54.272 18.752 12.736 9.472 25.344 21.12 29.312 34.88 2.752 9.024 8.32 26.112 8.32 51.392v20.992zM1015.36 190.016h-120.768l-48 128h-219.712l-45.376-128h-117.76l214.144 576h117.376l220.096-576zM811.008 446.016l-75.776 204.032-74.24-204.032h150.016z" />
<glyph unicode="&#xe17f;" d="M1024 448c0-282.77-229.23-512-512-512s-512 229.23-512 512c0 282.77 229.23 512 512 512s512-229.23 512-512z" />
<glyph unicode="&#xe180;" d="M683.456 593.408l173.632-173.824c55.936-55.936-66.24-106.048-66.24-244.224 0-104.96 169.152-220.416 169.152-42.368v206.72c0 207.872-276.544 253.696-276.544 253.696zM630.976 557.696h-34.624c0 120.064-67.456 294.336-173.12 294.336-113.088 0-138.56-115.392-138.56-155.84h-34.624c0 73.664 47.040 190.464 173.184 190.464 133.76 0 207.744-194.496 207.744-328.96zM575.488 616.384c5.184-34.368 4.096-63.168 2.304-77.504 16.384-10.816 27.136-29.376 27.136-50.496 0-33.408-27.072-60.544-60.608-60.544-33.472 0-60.544 27.136-60.544 60.544 0 21.568 11.392 40.384 28.352 51.136 8.96 26.368 21.184 77.824 2.048 138.112l-34.944 35.072c-49.152 49.152-97.216 3.2-97.216 3.2l-309.312-309.248c-32.448-32.448 28.288-145.728 135.68-252.992 107.2-107.328 220.544-168.064 252.992-135.616 0 0 291.84 291.84 307.392 307.392 15.552 15.488 40.896 56.704 3.776 93.76-37.056 37.12-197.056 197.184-197.056 197.184z" />
<glyph unicode="&#xe181;" d="M637.056 314.112h-326.656l-57.216-133.184c-14.080-32.768-21.184-57.216-21.184-73.408 0-12.864 6.080-24.128 18.304-33.92 12.288-9.728 38.72-16.064 79.36-18.944v-23.040h-265.664v23.040c35.264 6.208 58.112 14.336 68.416 24.256 21.184 19.904 44.544 60.352 70.336 121.344l296.768 694.4h21.76l293.696-701.888c23.616-56.384 45.056-93.056 64.448-109.824 19.264-16.832 46.080-26.24 80.576-28.352v-23.040h-332.864v23.040c33.6 1.664 56.256 7.232 68.16 16.768 11.776 9.536 17.728 21.184 17.728 34.816 0 18.24-8.32 47.040-24.896 86.464l-51.072 121.472zM619.648 360.192l-143.104 340.992-146.88-340.992h289.984z" />
<glyph unicode="&#xe182;" d="M350.316 704h390.737l-161.684 161.684h195.961l235.197-235.197-222.909-222.909h-235.197l161.684 161.684h-366.026c-110.376 0-199.869-89.492-199.869-199.869s89.492-199.869 199.869-199.869h42.658v-139.21h-40.421c-186.045 0-336.842 150.797-336.842 336.842s150.797 336.842 336.842 336.842z" />
<glyph unicode="&#xe183;" d="M350.316 900.958v5.982h-296.421v-302.403l108.194 108.194 179.389-179.389 76.207 76.234-179.389 179.389zM727.579 906.941v-5.982l112.020-111.993-179.389-179.389 76.207-76.234 179.389 179.389 108.194-108.194v302.403zM341.477 391.276l-179.389-179.389-108.194 108.194v-302.403h296.421v5.982l-112.020 112.020 179.389 179.389zM736.418 391.276l-76.207-76.207 179.389-179.389-112.020-112.020v-5.982h296.421v302.403l-108.194-108.194z" />
<glyph unicode="&#xe184;" d="M673.684 704h-390.737l161.684 161.684h-195.961l-235.197-235.197 222.909-222.909h235.197l-161.684 161.684h366.026c110.376 0 199.869-89.492 199.869-199.869s-89.492-199.869-199.869-199.869h-42.658v-139.21h40.421c186.045 0 336.842 150.797 336.842 336.842s-150.797 336.842-336.842 336.842z" />
<glyph unicode="&#xe185;" d="M404.211 771.368h-53.895v-107.789h-107.789v-53.895h107.789v-134.737h53.895v134.737h107.789v53.895h-107.789zM595.537 417.954c64.323 56.778 105.095 139.614 105.095 232.152 0 171.143-138.752 309.895-309.895 309.895s-309.895-138.752-309.895-309.895 138.752-309.895 309.895-309.895c57.048 0 110.296 15.683 156.214 42.55l315.365-446.76 80.842 80.842-347.621 401.112zM390.737 394.105c-141.393 0-256 114.607-256 256s114.607 256 256 256 256-114.607 256-256-114.607-256-256-256z" />
<glyph unicode="&#xe186;" d="M602.274 417.954c64.323 56.778 105.095 139.614 105.095 232.152 0 171.143-138.752 309.895-309.895 309.895s-309.895-138.752-309.895-309.895 138.752-309.895 309.895-309.895c57.048 0 110.296 15.683 156.214 42.55l315.365-446.76 80.842 80.842-347.621 401.112zM397.474 394.105c-141.393 0-256 114.607-256 256s114.607 256 256 256 256-114.607 256-256-114.607-256-256-256zM249.263 656.842h269.474v-53.895h-269.474v53.895z" />
</font>
</defs>
</svg>
